<?xml version="1.0" standalone="no"?>
<!DOCTYPE svg PUBLIC "-//W3C//DTD SVG 20010904//EN"
 "http://www.w3.org/TR/2001/REC-SVG-20010904/DTD/svg10.dtd">
<svg version="1.0" xmlns="http://www.w3.org/2000/svg"
 width="1280.000000pt" height="783.000000pt" viewBox="0 0 1280.000000 783.000000"
 preserveAspectRatio="xMidYMid meet">

<g transform="translate(0.000000,783.000000) scale(0.100000,-0.100000)"
fill="#000000" stroke="none">
<path d="M4010 5439 c-432 -53 -865 -230 -1172 -478 -232 -187 -431 -475 -502
-726 -38 -136 -49 -238 -43 -403 6 -179 28 -276 97 -417 270 -556 1037 -901
1810 -816 227 25 521 97 725 178 187 73 506 240 577 301 20 17 19 20 43 -78 9
-36 34 -102 56 -147 93 -190 251 -260 407 -182 79 39 142 109 194 217 35 71
42 82 51 66 37 -71 152 -144 225 -144 81 0 199 102 272 233 23 42 44 77 46 77
2 0 4 -43 3 -95 -1 -110 10 -137 69 -162 78 -34 186 -9 222 49 10 16 25 69 34
118 30 166 106 380 135 380 5 0 11 -57 13 -127 6 -145 27 -219 81 -280 62 -71
168 -93 255 -53 49 22 143 115 199 198 l38 55 8 -44 c16 -89 48 -191 73 -230
26 -42 93 -91 152 -110 108 -36 242 62 333 243 16 32 33 58 38 58 4 0 9 -59
10 -132 1 -72 7 -140 12 -150 25 -47 134 -70 202 -44 71 27 83 47 116 191 33
146 112 398 136 433 9 12 20 22 25 22 5 0 7 -51 3 -117 -6 -144 9 -325 31
-359 22 -32 67 -32 133 1 66 33 85 60 164 225 94 197 184 363 210 385 l22 20
-6 -25 c-42 -158 -54 -446 -24 -560 40 -149 156 -211 281 -151 116 57 279 295
386 566 43 108 49 166 21 194 -28 28 -72 27 -99 -1 -11 -13 -34 -59 -50 -103
-68 -184 -168 -381 -225 -442 -11 -13 -29 -23 -39 -23 -15 0 -18 8 -18 49 0
68 25 253 71 534 45 276 48 328 19 357 -60 60 -187 50 -274 -22 -43 -36 -192
-254 -277 -407 -33 -58 -59 -97 -59 -86 0 11 7 65 16 120 29 195 30 179 -2
204 -26 21 -37 23 -104 19 -50 -3 -89 -12 -117 -26 -76 -39 -146 -149 -232
-362 -48 -119 -51 -123 -51 -80 0 94 50 478 86 656 5 25 1 37 -16 54 -19 19
-31 22 -84 18 -71 -4 -132 -32 -190 -86 -61 -58 -76 -104 -87 -260 -13 -186
-23 -236 -79 -389 -63 -170 -117 -281 -147 -300 -23 -15 -26 -15 -46 6 -20 19
-22 34 -25 166 -4 147 5 260 35 440 18 114 14 143 -25 180 -68 65 -153 77
-221 32 -45 -30 -57 -68 -65 -202 -5 -96 -25 -156 -87 -271 -72 -132 -170
-254 -204 -254 -25 0 -37 48 -42 170 -3 82 0 145 12 220 31 184 31 184 -2 205
-71 47 -205 23 -277 -49 -44 -44 -127 -196 -167 -306 -21 -57 -24 -61 -27 -35
-5 36 10 139 50 360 35 199 33 215 -34 245 -67 30 -126 23 -204 -23 -50 -31
-74 -77 -90 -173 -7 -49 -14 -111 -14 -138 0 -80 -81 -320 -164 -484 -55 -110
-93 -127 -118 -54 -26 76 -12 358 28 589 l16 92 -24 43 c-44 81 -171 120 -235
72 l-28 -21 -65 68 c-76 79 -113 93 -225 87 -246 -13 -425 -284 -452 -685 l-6
-91 -101 -48 c-309 -144 -531 -215 -846 -271 -145 -25 -174 -27 -440 -27 -272
-1 -291 1 -416 27 -370 77 -646 208 -834 397 -102 101 -172 209 -213 328 -25
72 -30 107 -35 212 -7 189 30 339 122 497 214 365 735 651 1306 717 425 50
799 -24 967 -190 58 -57 73 -97 73 -189 0 -84 -31 -145 -112 -220 -144 -135
-378 -209 -663 -210 -139 0 -157 2 -239 29 -110 36 -172 87 -162 133 11 48
109 128 236 193 169 86 220 152 145 190 -43 21 -220 19 -305 -4 -205 -56 -355
-187 -389 -339 -16 -69 3 -188 41 -259 73 -137 232 -241 434 -283 312 -64 637
-19 938 131 121 60 198 118 287 212 116 123 169 252 169 409 0 161 -56 303
-166 422 -151 163 -392 278 -694 331 -141 25 -469 36 -600 19z m2100 -1676
c64 -59 90 -294 54 -497 -31 -177 -104 -359 -166 -411 -42 -36 -92 -34 -128 5
-97 104 -88 541 16 770 65 142 155 196 224 133z"/>
<path d="M8030 4474 c-224 -43 -337 -205 -228 -329 69 -79 274 -100 405 -41
71 32 134 94 152 149 25 76 -21 158 -111 197 -52 23 -161 34 -218 24z"/>
<path d="M3080 2194 l0 -65 32 3 c39 4 51 28 14 28 -31 0 -34 16 -6 25 11 4
18 11 14 16 -3 6 -12 8 -20 5 -9 -3 -14 2 -14 14 0 15 7 20 26 20 14 0 23 4
19 10 -3 6 -19 10 -36 10 l-29 0 0 -66z"/>
<path d="M3298 2254 c-5 -4 -8 -34 -8 -66 l0 -59 32 3 c38 4 51 28 14 28 -23
0 -25 4 -28 51 -2 28 -6 47 -10 43z"/>
<path d="M3533 2253 l-33 -4 0 -60 0 -60 38 3 c43 4 50 22 9 26 -26 3 -35 27
-9 27 19 0 25 14 8 21 -23 9 -20 34 4 34 11 0 20 5 20 10 0 6 -1 9 -2 8 -2 0
-18 -3 -35 -5z"/>
<path d="M3798 2215 l-26 -50 -17 43 c-16 39 -35 56 -35 32 0 -13 49 -110 55
-110 10 0 56 103 53 118 -3 11 -13 0 -30 -33z"/>
<path d="M4000 2200 c-16 -33 -30 -62 -30 -65 0 -3 14 2 30 12 29 17 33 17 60
1 17 -9 30 -13 30 -8 0 13 -49 120 -55 120 -3 0 -18 -27 -35 -60z m49 -22 c1
-5 -8 -8 -19 -8 -23 0 -24 4 -8 33 11 21 11 21 19 2 4 -11 8 -23 8 -27z"/>
<path d="M4260 2250 c-19 -4 -27 -8 -17 -9 14 -1 17 -11 17 -56 0 -30 5 -55
10 -55 6 0 10 23 10 50 0 36 4 52 15 56 15 6 21 25 8 23 -5 -1 -24 -5 -43 -9z"/>
<path d="M4457 2253 c-11 -10 -8 -123 3 -123 6 0 10 28 10 65 0 65 -1 71 -13
58z"/>
<path d="M4620 2196 c0 -72 16 -83 22 -17 l3 35 25 -37 c40 -59 50 -56 50 18
0 37 -4 65 -10 65 -5 0 -10 -19 -10 -42 l0 -43 -40 45 -39 45 -1 -69z"/>
<path d="M4880 2240 c-11 -11 -20 -31 -20 -45 0 -30 32 -65 60 -65 24 0 63 36
57 53 -4 15 -47 22 -47 9 0 -6 6 -13 13 -15 9 -4 9 -8 -2 -16 -17 -11 -49 2
-58 25 -9 23 27 56 54 49 26 -6 32 9 7 19 -27 10 -43 7 -64 -14z"/>
<path d="M5310 2240 c-11 -11 -20 -31 -20 -45 0 -24 31 -65 49 -65 17 0 41 12
41 20 0 5 -8 6 -19 3 -20 -5 -51 20 -51 42 0 25 31 47 58 40 22 -5 24 -4 13 9
-18 22 -47 20 -71 -4z"/>
<path d="M5538 2254 c-5 -4 -8 -27 -8 -50 0 -50 22 -78 54 -68 30 9 36 22 36
79 0 58 -17 51 -22 -10 -2 -32 -7 -40 -23 -40 -17 0 -21 8 -25 48 -3 27 -8 45
-12 41z"/>
<path d="M5769 2228 c-1 -18 -2 -46 -3 -63 -1 -27 2 -30 32 -30 37 0 48 18 15
23 -20 3 -23 9 -23 47 0 51 -19 73 -21 23z"/>
<path d="M5980 2196 c0 -37 4 -66 10 -66 6 0 10 26 10 59 0 33 -4 63 -10 66
-6 4 -10 -18 -10 -59z"/>
<path d="M6140 2198 c0 -39 4 -68 10 -68 6 0 10 19 10 43 l0 42 40 -45 39 -45
1 63 c0 35 -4 62 -10 62 -5 0 -10 -16 -10 -36 l0 -37 -40 44 -39 44 -1 -67z"/>
<path d="M6410 2200 c-16 -33 -30 -62 -30 -65 0 -3 13 1 30 10 37 19 49 19 72
-2 10 -9 18 -11 18 -5 0 15 -48 122 -54 122 -3 0 -19 -27 -36 -60z m50 -17 c0
-7 -9 -13 -20 -13 -23 0 -24 4 -9 32 9 17 13 18 20 7 5 -8 9 -20 9 -26z"/>
<path d="M6644 2246 c-9 -22 0 -111 11 -111 5 0 10 7 11 15 2 32 5 33 34 5 32
-30 38 -28 18 5 -11 17 -10 22 1 29 19 12 4 50 -26 62 -33 12 -43 11 -49 -5z
m55 -42 c-11 -13 -14 -13 -27 0 -21 20 -7 39 19 25 17 -8 18 -13 8 -25z"/>
<path d="M6881 2255 c-1 -5 8 -25 19 -43 12 -19 20 -41 18 -50 -1 -10 2 -18 7
-20 6 -1 12 10 13 25 2 15 13 40 24 56 27 37 13 50 -16 14 l-22 -27 -21 27
c-12 16 -22 24 -22 18z"/>
<path d="M7296 2203 c-7 -63 0 -76 38 -71 34 4 35 22 1 26 -33 4 -32 18 3 27
27 7 27 7 5 18 -30 13 -29 23 3 31 31 8 29 11 -12 19 l-31 6 -7 -56z"/>
<path d="M7510 2254 c0 -5 7 -20 16 -33 16 -22 16 -26 -1 -53 -21 -35 -13 -48
11 -19 l18 21 23 -22 c27 -25 31 -9 7 28 -15 23 -15 26 0 43 26 28 20 48 -7
23 l-23 -22 -22 22 c-12 13 -22 18 -22 12z"/>
<path d="M7771 2241 c-27 -27 -27 -65 -1 -91 21 -21 29 -23 54 -14 22 9 20 23
-3 17 -20 -5 -51 20 -51 42 0 22 31 47 52 42 12 -4 18 -1 15 6 -6 21 -45 19
-66 -2z"/>
<path d="M7997 2254 c-4 -4 -7 -34 -7 -66 l0 -58 35 0 c24 0 35 5 35 15 0 9
-9 15 -25 15 -14 0 -25 5 -25 10 0 6 6 10 14 10 25 0 29 21 7 27 -25 6 -23 25
3 29 24 3 34 14 13 14 -8 0 -22 2 -29 5 -8 3 -17 2 -21 -1z"/>
<path d="M8207 2253 c-3 -5 -4 -32 -3 -62 1 -58 10 -67 52 -57 28 7 23 26 -7
26 -16 0 -19 7 -19 44 0 41 -12 67 -23 49z"/>
<path d="M8420 2197 c0 -63 1 -67 23 -67 12 0 29 5 37 10 15 9 11 12 -20 14
-10 1 -16 15 -18 46 -5 74 -22 72 -22 -3z"/>
<path d="M8630 2195 l0 -65 35 0 c24 0 35 5 35 15 0 9 -9 15 -25 15 -15 0 -25
6 -25 15 0 8 6 12 14 9 8 -3 17 -1 21 5 3 7 -3 11 -15 11 -30 0 -22 32 10 40
l25 6 -25 7 c-48 13 -50 11 -50 -58z"/>
<path d="M8925 2247 c-4 -9 -5 -29 -3 -42 7 -34 -2 -31 -35 10 -15 19 -32 35
-37 35 -6 0 -10 -27 -10 -60 0 -33 4 -60 10 -60 6 0 10 19 10 43 l0 42 39 -45
38 -45 4 40 c2 22 1 54 -2 70 -5 25 -7 27 -14 12z"/>
<path d="M9107 2242 c-26 -28 -22 -78 8 -98 25 -16 65 -12 65 8 0 5 -7 7 -16
4 -24 -9 -54 12 -54 39 0 28 30 48 56 38 12 -4 15 -2 12 8 -7 22 -52 23 -71 1z"/>
<path d="M9337 2253 c-4 -3 -7 -33 -7 -65 l0 -58 35 0 c24 0 35 5 35 15 0 9
-9 15 -25 15 -31 0 -33 15 -2 25 l22 8 -22 4 c-34 6 -31 43 3 43 14 0 23 4 19
10 -7 11 -48 14 -58 3z"/>
</g>
</svg>
