<?xml version="1.0" standalone="no"?>
<!DOCTYPE svg PUBLIC "-//W3C//DTD SVG 20010904//EN"
 "http://www.w3.org/TR/2001/REC-SVG-20010904/DTD/svg10.dtd">
<svg version="1.0" xmlns="http://www.w3.org/2000/svg"
 width="100.000000pt" height="100.000000pt" viewBox="0 0 1024.000000 1024.000000"
 preserveAspectRatio="xMidYMid meet">

  <rect width="100%" height="100%" fill="white" />

<g transform="translate(0.000000,1024.000000) scale(0.100000,-0.100000)"
fill="#000000" stroke="none">
<path d="M0 5120 l0 -5120 5120 0 5120 0 0 5120 0 5120 -5120 0 -5120 0 0
-5120z m4608 3472 c54 -35 52 2 52 -984 0 -879 1 -915 20 -955 52 -116 216
-105 250 17 6 21 11 383 13 940 2 1025 -4 953 82 991 49 22 83 18 126 -12 61
-43 59 1 58 -997 0 -776 2 -915 15 -939 52 -101 172 -109 236 -16 l25 37 5
930 c6 1035 0 960 75 996 80 38 165 -9 185 -104 8 -36 10 -331 8 -996 -4
-1029 -1 -972 -61 -1103 -79 -174 -247 -317 -430 -368 -103 -29 -260 -31 -357
-6 -248 65 -436 250 -494 488 -14 59 -17 180 -18 1030 -2 875 0 967 14 995 21
39 39 53 84 69 40 13 78 9 112 -13z m3188 -479 c-30 -254 -53 -369 -107 -548
-113 -369 -293 -720 -557 -1080 -283 -385 -818 -992 -952 -1079 -108 -70 -148
-78 -405 -84 -253 -5 -253 -5 -335 58 -19 15 -74 56 -123 91 -48 35 -86 67
-85 71 4 11 262 284 452 478 94 96 232 238 306 315 74 77 238 246 365 375 127
129 386 395 575 590 459 473 852 870 863 870 5 0 6 -26 3 -57z m-3630 -112
c91 -41 109 -139 48 -251 -185 -340 -244 -587 -214 -896 24 -249 73 -419 187
-643 99 -197 181 -309 348 -477 154 -155 255 -233 590 -459 121 -81 256 -175
300 -208 277 -208 510 -449 672 -693 86 -130 196 -340 249 -473 l38 -95 59 65
c229 250 371 509 460 839 87 321 82 688 -14 995 l-18 59 122 125 c249 256 385
397 421 436 l36 40 22 -25 c36 -43 136 -262 182 -402 93 -280 121 -461 120
-793 0 -205 -3 -260 -23 -375 -96 -558 -390 -1112 -810 -1527 -101 -100 -308
-276 -349 -297 -28 -14 -30 -14 -57 14 -16 17 -32 30 -37 30 -4 0 -8 -18 -8
-40 0 -114 -53 -371 -111 -536 -67 -192 -209 -438 -327 -566 -41 -44 -66 -61
-102 -72 -106 -32 -210 36 -210 136 0 30 11 50 59 110 153 191 234 358 295
612 49 197 59 303 54 523 -4 158 -9 207 -32 306 -81 352 -241 667 -478 942
-154 179 -334 329 -605 504 -354 230 -525 361 -708 545 -250 251 -415 502
-529 804 -15 39 -31 72 -36 72 -12 0 -98 -121 -152 -215 -172 -296 -252 -594
-252 -945 0 -345 79 -646 248 -935 l35 -61 -41 -44 c-46 -49 -231 -242 -402
-417 -88 -91 -112 -111 -123 -101 -36 29 -157 205 -221 318 -156 280 -259 585
-299 885 -21 158 -24 483 -5 635 33 266 111 520 242 785 101 206 213 376 345
525 94 107 304 305 342 323 19 8 30 3 80 -43 l57 -52 17 96 c41 231 109 436
214 641 117 229 143 264 214 285 41 13 63 11 107 -9z m1957 -582 c97 -50 302
-203 314 -236 4 -10 -54 -74 -178 -199 -101 -101 -187 -184 -191 -184 -5 0 -8
144 -8 320 0 215 3 320 10 320 6 0 30 -10 53 -21z m-1312 -2700 c161 -122 181
-139 177 -156 -2 -7 -169 -187 -373 -399 -203 -213 -415 -435 -470 -493 -56
-58 -204 -214 -330 -346 -127 -132 -347 -364 -490 -515 -454 -481 -562 -587
-614 -607 -153 -59 -303 49 -303 218 0 82 27 126 166 269 66 69 190 197 276
285 85 88 222 230 304 315 691 715 1496 1530 1512 1530 7 0 72 -46 145 -101z
m466 -365 l53 -46 -2 -1236 c-3 -1172 -4 -1239 -21 -1273 -25 -50 -84 -108
-132 -130 -49 -23 -139 -25 -189 -4 -56 23 -121 89 -147 148 l-24 52 -3 1035
c-1 570 1 1052 5 1071 6 28 49 79 197 232 105 109 194 197 199 197 6 0 34 -21
64 -46z m533 -1213 c0 -283 -4 -502 -9 -505 -5 -3 -40 -12 -77 -20 -51 -11
-72 -12 -82 -3 -11 9 -13 61 -8 276 3 146 5 361 6 476 l0 210 73 32 c39 17 78
32 85 32 9 1 12 -105 12 -498z m-1292 383 c16 -5 18 -934 1 -934 -22 0 -127
34 -224 72 -174 69 -455 227 -455 257 0 7 33 48 73 90 104 108 384 405 446
473 52 57 53 57 99 52 26 -3 53 -7 60 -10z m2790 -549 c56 -17 92 -53 92 -91
0 -14 -15 -41 -33 -60 -32 -36 -34 -36 -63 -21 -102 52 -194 6 -194 -98 0 -47
14 -71 50 -90 43 -22 88 -19 126 10 41 31 65 32 101 1 22 -19 28 -32 28 -66 0
-37 -6 -47 -38 -75 -67 -58 -177 -71 -262 -31 -100 46 -165 143 -165 247 0
116 56 205 162 258 70 35 118 39 196 16z"/>
</g>
</svg>
