<?xml version="1.0" standalone="no"?>
<!DOCTYPE svg PUBLIC "-//W3C//DTD SVG 20010904//EN"
 "http://www.w3.org/TR/2001/REC-SVG-20010904/DTD/svg10.dtd">
<svg version="1.0" xmlns="http://www.w3.org/2000/svg"
 width="1142.000000pt" height="450.000000pt" viewBox="0 0 1142.000000 450.000000"
 preserveAspectRatio="xMidYMid meet">

<g transform="translate(0.000000,450.000000) scale(0.100000,-0.100000)"
fill="#000000" stroke="none">
<path d="M2632 4195 c-508 -53 -1034 -238 -1447 -509 -335 -220 -607 -512
-788 -846 -138 -256 -205 -556 -194 -869 11 -328 85 -554 267 -814 85 -122
315 -352 445 -443 270 -192 547 -317 883 -400 319 -78 498 -99 797 -91 238 6
375 22 611 68 368 72 695 184 1044 359 105 53 366 204 433 252 31 23 26 32 61
-107 58 -226 173 -393 321 -466 63 -31 78 -34 155 -34 80 0 92 3 164 38 128
64 228 182 295 350 13 31 27 59 31 62 4 3 24 -20 44 -51 43 -64 124 -121 211
-148 48 -16 65 -17 113 -7 118 23 240 130 323 281 24 44 53 95 64 113 l20 32
5 -141 c6 -162 13 -179 87 -214 102 -48 229 -33 298 36 37 37 44 58 74 214 41
213 127 460 174 499 24 19 25 11 30 -169 5 -170 23 -251 73 -338 55 -95 122
-139 241 -157 53 -8 142 16 198 55 56 38 169 161 235 253 l55 78 13 -88 c36
-257 120 -382 297 -444 72 -25 125 -21 201 16 97 47 215 188 288 343 16 34 33
62 38 62 4 0 8 -78 9 -172 0 -215 6 -233 77 -272 130 -69 298 -30 344 81 9 21
33 112 53 203 61 268 180 610 210 599 6 -3 9 -56 7 -139 -3 -162 13 -426 30
-484 6 -22 18 -49 26 -58 35 -41 163 -8 246 64 43 37 60 66 163 277 133 275
255 500 289 532 29 28 30 18 9 -76 -47 -202 -62 -526 -30 -674 30 -143 78
-220 161 -258 173 -79 338 17 529 307 151 229 305 578 305 691 0 31 -7 47 -29
70 -63 62 -146 21 -185 -91 -146 -424 -380 -812 -412 -685 -13 52 35 426 107
845 49 278 56 405 24 440 -88 100 -319 65 -433 -64 -66 -75 -297 -437 -369
-578 -25 -49 -48 -87 -51 -84 -7 8 18 215 38 313 21 102 16 123 -39 160 -65
44 -227 24 -327 -39 -86 -55 -196 -244 -305 -522 -30 -76 -56 -131 -57 -121
-11 51 49 552 99 833 29 160 30 175 15 197 -19 29 -65 39 -150 33 -122 -10
-263 -104 -315 -210 -41 -84 -50 -133 -57 -328 -6 -180 -17 -236 -84 -426 -85
-243 -171 -433 -216 -475 -35 -33 -74 -18 -93 36 -35 97 -21 522 25 769 29
153 29 209 4 254 -26 46 -86 93 -144 112 -79 25 -196 -4 -238 -61 -31 -41 -48
-127 -48 -243 0 -101 -2 -115 -36 -200 -45 -111 -128 -265 -200 -368 -56 -79
-146 -168 -170 -168 -71 0 -83 373 -22 663 20 98 21 111 7 135 -17 31 -66 57
-122 66 -86 14 -240 -38 -298 -101 -72 -77 -179 -282 -236 -453 -57 -172 -37
75 39 475 37 195 40 260 15 299 -46 70 -188 90 -293 42 -138 -63 -176 -143
-194 -414 -8 -118 -15 -155 -49 -263 -73 -227 -194 -506 -247 -569 -17 -19
-34 -30 -47 -28 -39 6 -56 47 -69 160 -14 127 0 371 33 588 12 74 23 171 26
215 5 76 3 82 -24 123 -51 74 -125 112 -223 112 -45 0 -65 -6 -102 -29 l-45
-29 -44 60 c-87 120 -164 158 -318 158 -153 0 -243 -37 -357 -148 -63 -62
-138 -166 -172 -242 -81 -177 -132 -400 -132 -582 0 -116 16 -100 -191 -194
-436 -199 -767 -301 -1181 -364 -593 -90 -1049 -56 -1563 114 -477 159 -826
429 -999 774 -120 239 -138 590 -44 867 117 343 384 642 773 865 252 145 487
238 805 320 201 51 470 81 736 80 169 0 225 -4 350 -25 189 -32 248 -47 353
-90 169 -69 299 -171 341 -267 31 -72 38 -192 15 -270 -61 -210 -355 -396
-745 -471 -94 -18 -151 -22 -315 -22 -234 0 -309 13 -435 76 -130 65 -160 125
-102 205 45 62 166 148 297 210 146 70 197 104 230 152 50 73 21 112 -98 132
-159 27 -376 -12 -555 -101 -86 -42 -117 -64 -186 -132 -136 -135 -178 -248
-157 -424 20 -166 85 -279 229 -399 269 -223 805 -297 1292 -178 459 113 807
336 983 629 181 304 130 721 -123 988 -231 246 -597 411 -1055 477 -193 28
-532 35 -723 15z m2903 -2338 c56 -56 94 -210 96 -393 2 -129 -7 -211 -38
-364 -72 -357 -213 -581 -338 -540 -107 35 -164 237 -152 540 13 312 87 579
199 714 46 56 84 76 147 76 47 0 57 -4 86 -33z"/>
<path d="M8208 2845 c-132 -22 -219 -61 -287 -127 -66 -64 -85 -103 -85 -176
-2 -151 90 -225 316 -253 231 -29 473 93 518 262 11 41 0 110 -25 159 -34 65
-134 121 -255 141 -67 11 -85 10 -182 -6z"/>
</g>
</svg>
